<svg version="1.1" id="Layer_1" xmlns="http://www.w3.org/2000/svg" width="4080" height="1248" viewBox="283 324 4080 1248" xml:space="preserve">
  <g id="m" transform="translate(2425 199)">
    <path id="Combined-Shape" class="st0" d="M1152 671.1c33-36.9 81.3-60.1 135-60.1 99.2 0 180 79.4 180 177.6V1051h-90V788.6c0-48.2-40.1-87.6-90-87.6s-90 39.4-90 87.6V1051h-90V788.6c0-48.2-40.1-87.6-90-87.6s-90 39.4-90 87.6V1051h-90V788.6c0-98.3 80.8-177.6 180-177.6 53.7 0 102 23.2 135 60.1z"/>
  </g>
  <path id="Path-4" class="st0" d="M2899.8 1250c-60.4 0-112.2-21.5-155.2-64.6-43.1-43.1-64.6-94.8-64.6-155.2 0-60.7 21.5-112.6 64.6-155.6 43.1-43.1 94.8-64.6 155.2-64.6 60.9 0 104.1 12.7 129.5 38.1V810h90.6v440h-90.6v-38.1c-25.4 25.4-68.5 38.1-129.5 38.1zm-2-351c-35.7 0-66.3 12.9-91.9 38.6-25.3 25.5-37.9 56.3-37.9 92.6s12.6 67.1 37.9 92.6 55.9 38.2 91.9 38.2c36 0 66.7-12.7 92.3-38.2 25.3-25.5 37.9-56.3 37.9-92.6s-12.6-67.1-37.9-92.6c-25.6-25.7-56.3-38.6-92.3-38.6z"/>
  <path id="Path-3" class="st0" d="M2368.7 810c60.6 0 112.4 21.5 155.6 64.6 43.2 43.1 64.7 94.8 64.7 155.2l-.8 28H2242c3.4 21.3 16.4 43.7 39 67.3 24.7 22.8 53.9 34.2 87.7 34.2 24.2 0 46.8-6.6 67.8-19.8 20-11.9 37.7-32.8 53-62.6l83.8 36.2c-23.4 46.7-52.5 80.9-87.3 102.7-35.6 22.8-74.7 34.2-117.4 34.2-60.6 0-112.4-21.5-155.6-64.6-43.4-43.1-65.1-94.9-65.1-155.6 0-60.4 21.7-112.2 65.1-155.2 43.3-43.1 95.1-64.6 155.7-64.6zM2489 970c-6.9-13.9-20.4-28.7-40.5-44.2-24-17.2-50.7-25.8-80.2-25.8-29.8 0-56.5 8.6-80.2 25.8-19.6 15.8-32.9 30.6-40.1 44.2h241z"/>
  <g id="t" transform="translate(961 68)">
    <path id="Combined-Shape_1_" class="st0" d="M927 744h110v90H927v170.4c0 48.2 40.5 87.6 91 87.6h89v90h-89c-99.7 0-181-79.3-181-177.6V611h90v133z"/>
  </g>
  <g id="n" transform="translate(262 200)">
    <path id="Path" class="st0" d="M1216 1051V788.6c0-99-85.7-177.6-189.5-177.6S837 689.6 837 788.6V1051h90V788.6c0-47.5 43.7-87.6 99.5-87.6s99.5 40.1 99.5 87.6V1051h90z"/>
  </g>
  <g id="i">
    <path id="Path_1_" class="st0" d="M867.5 811v440h90V811z"/>
    <circle id="Oval" cx="907" cy="681" r="70" fill-rule="evenodd" clip-rule="evenodd" fill="#07c972"/>
  </g>
</svg>
